<?xml version="1.0" encoding="utf-8" standalone="yes"?>
<!DOCTYPE svg PUBLIC "-//W3C//DTD SVG 1.1//EN" "http://www.w3.org/Graphics/SVG/1.1/DTD/svg11.dtd">
<svg width="746" height="679" viewBox="0 0 746 679" style="fill:none;stroke:none;fill-rule:evenodd;clip-rule:evenodd;stroke-linecap:round;stroke-linejoin:round;stroke-miterlimit:1.5;" version="1.1" xmlns="http://www.w3.org/2000/svg" xmlns:xlink="http://www.w3.org/1999/xlink"><style class="text-font-style fontImports" data-font-family="Roboto">@import url('https://fonts.googleapis.com/css2?family=Roboto:wght@400;700&amp;display=block');</style><g id="items" style="isolation: isolate"><g id="blend" style="mix-blend-mode: normal"><g id="g-root-0.cu_sy_hs4zy97ixzin-fill" data-item-order="-60142" transform="translate(307, 207)"><g id="0.cu_sy_hs4zy97ixzin-fill" stroke="none" fill="#e8e8e8"><g><path d="M 54.78 406.78L 60.38 409.98L 61.98 405.18L 66 409.18L 70.02 405.18L 71.62 409.98L 77.22 406.78L 122 346L 94 358L 38 358L 10 346L 54.78 406.78ZM 94 298L 38 298L 10 310L 38 322L 94 322L 122 310L 94 298ZM 66 314.8C 54.95 314.8 46 312.65 46 310C 46 307.35 54.95 305.2 66 305.2C 77.05 305.2 86 307.35 86 310C 86 312.65 77.05 314.8 66 314.8ZM 94 226L 38 226L 10 238L 38 250L 94 250L 122 238L 94 226ZM 66 242.8C 54.95 242.8 46 240.65 46 238C 46 235.35 54.95 233.2 66 233.2C 77.05 233.2 86 235.35 86 238C 86 240.65 77.05 242.8 66 242.8ZM 94 154L 38 154L 10 166L 38 178L 94 178L 122 166L 94 154ZM 66 170.8C 54.95 170.8 46 168.65 46 166C 46 163.35 54.95 161.2 66 161.2C 77.05 161.2 86 163.35 86 166C 86 168.65 77.05 170.8 66 170.8ZM 94 82L 38 82L 10 94L 38 106L 94 106L 122 94L 94 82ZM 66 98.8C 54.95 98.8 46 96.65 46 94C 46 91.35 54.95 89.2 66 89.2C 77.05 89.2 86 91.35 86 94C 86 96.65 77.05 98.8 66 98.8ZM 94 10L 38 10L 10 22L 38 34L 94 34L 122 22L 94 10ZM 66 26.8C 54.95 26.8 46 24.65 46 22C 46 19.35 54.95 17.2 66 17.2C 77.05 17.2 86 19.35 86 22C 86 24.65 77.05 26.8 66 26.8Z"></path></g></g></g><g id="g-root-0.cu_1_sy_8whzpd7iy134-fill" data-item-order="-60140" transform="translate(307.000244140625, 115)"><g id="0.cu_1_sy_8whzpd7iy134-fill" stroke="none" fill="#e8e8e8"><g><path d="M 54.779785 498.780176L 60.379785 501.980176L 61.979785 497.180176L 65.999785 501.180176L 70.019785 497.180176L 71.619785 501.980176L 77.219785 498.780176L 65.999785 514.000176L 54.779785 498.780176ZM 65.999756 406.800195C 77.045456 406.800195 85.999756 404.651195 85.999756 402.000195C 85.999756 399.349195 77.045456 397.200195 65.999756 397.200195C 54.954056 397.200195 45.999756 399.349195 45.999756 402.000195C 45.999756 404.651195 54.954056 406.800195 65.999756 406.800195ZM 65.999756 334.800195C 77.045456 334.800195 85.999756 332.651195 85.999756 330.000195C 85.999756 327.349195 77.045456 325.200195 65.999756 325.200195C 54.954056 325.200195 45.999756 327.349195 45.999756 330.000195C 45.999756 332.651195 54.954056 334.800195 65.999756 334.800195ZM 65.999756 262.800195C 77.045456 262.800195 85.999756 260.651195 85.999756 258.000195C 85.999756 255.349195 77.045456 253.200195 65.999756 253.200195C 54.954056 253.200195 45.999756 255.349195 45.999756 258.000195C 45.999756 260.651195 54.954056 262.800195 65.999756 262.800195ZM 65.999756 190.800195C 77.045456 190.800195 85.999756 188.651195 85.999756 186.000195C 85.999756 183.349195 77.045456 181.200195 65.999756 181.200195C 54.954056 181.200195 45.999756 183.349195 45.999756 186.000195C 45.999756 188.651195 54.954056 190.800195 65.999756 190.800195ZM 65.999756 118.800195C 77.045456 118.800195 85.999756 116.651195 85.999756 114.000195C 85.999756 111.349195 77.045456 109.200195 65.999756 109.200195C 54.954056 109.200195 45.999756 111.349195 45.999756 114.000195C 45.999756 116.651195 54.954056 118.800195 65.999756 118.800195ZM 10 34L 38 46L 94 46L 122 34L 122 42L 94 54L 38 54L 10 42L 10 34ZM 10 26L 38 38L 94 38L 122 26L 122 34L 94 46L 38 46L 10 34L 10 26ZM 10 26L 38 38L 94 38L 122 26L 122 10L 94 22L 38 22L 10 10L 10 26Z"></path></g></g></g><g id="g-root-6.cu_sy_1um5jb57iy2gx-fill" data-item-order="-60136" transform="translate(391, 507)"><g id="6.cu_sy_1um5jb57iy2gx-fill" stroke="none" fill="#fb6762"><g><path d="M 10 58L 38 46L 38 10L 10 22L 10 58Z"></path></g></g></g><g id="g-root-6.cu_1_sy_1lr505d7iy03u-fill" data-item-order="-60134" transform="translate(335, 519)"><g id="6.cu_1_sy_1lr505d7iy03u-fill" stroke="none" fill="#fb6762"><g><path d="M 66 10L 10 10L 10 46L 66 46L 66 10Z"></path></g></g></g><g id="g-root-6.cu_2_sy_1hbbi0x7iy0w3-fill" data-item-order="-60132" transform="translate(307, 507)"><g id="6.cu_2_sy_1hbbi0x7iy0w3-fill" stroke="none" fill="#fb6762"><g><path d="M 38 22L 10 10L 10 46L 38 58L 38 22Z"></path></g></g></g><g id="g-root-5.cu_sy_13zuznl7iy2h0-fill" data-item-order="-60128" transform="translate(391, 435)"><g id="5.cu_sy_13zuznl7iy2h0-fill" stroke="none" fill="#f79438"><g><path d="M 10 58L 38 46L 38 10L 10 22L 10 58Z"></path></g></g></g><g id="g-root-5.cu_1_sy_v4ught7iy03x-fill" data-item-order="-60126" transform="translate(335, 447)"><g id="5.cu_1_sy_v4ught7iy03x-fill" stroke="none" fill="#f79438"><g><path d="M 66 10L 10 10L 10 46L 66 46L 66 10Z"></path></g></g></g><g id="g-root-5.cu_2_sy_qp0ydd7iy0w6-fill" data-item-order="-60124" transform="translate(307, 435)"><g id="5.cu_2_sy_qp0ydd7iy0w6-fill" stroke="none" fill="#f79438"><g><path d="M 38 22L 10 10L 10 46L 38 58L 38 22Z"></path></g></g></g><g id="g-root-4.cu_sy_htdy4h7iy1ov-fill" data-item-order="-60120" transform="translate(391, 363)"><g id="4.cu_sy_htdy4h7iy1ov-fill" stroke="none" fill="#ffe711"><g><path d="M 10 58L 38 46L 38 10L 10 22L 10 58Z"></path></g></g></g><g id="g-root-4.cu_1_sy_ddkg017iy2h4-fill" data-item-order="-60118" transform="translate(335, 375)"><g id="4.cu_1_sy_ddkg017iy2h4-fill" stroke="none" fill="#ffe711"><g><path d="M 66 10L 10 10L 10 46L 66 46L 66 10Z"></path></g></g></g><g id="g-root-4.cu_2_sy_8ydeyp7iy03l-fill" data-item-order="-60116" transform="translate(307, 363)"><g id="4.cu_2_sy_8ydeyp7iy03l-fill" stroke="none" fill="#ffe711"><g><path d="M 38 22L 10 10L 10 46L 38 58L 38 22Z"></path></g></g></g><g id="g-root-3.cu_sy_2qept7iy0wa-fill" data-item-order="-60112" transform="translate(391, 291)"><g id="3.cu_sy_2qept7iy0wa-fill" stroke="none" fill="#a6da37"><g><path d="M 10 58L 38 46L 38 10L 10 22L 10 58Z"></path></g></g></g><g id="g-root-3.cu_1_sy_1uo0ykh7iy1hf-fill" data-item-order="-60110" transform="translate(335, 303)"><g id="3.cu_1_sy_1uo0ykh7iy1hf-fill" stroke="none" fill="#a6da37"><g><path d="M 66 10L 10 10L 10 46L 66 46L 66 10Z"></path></g></g></g><g id="g-root-3.cu_2_sy_1lsdybl7iy2a4-fill" data-item-order="-60108" transform="translate(307, 291)"><g id="3.cu_2_sy_1lsdybl7iy2a4-fill" stroke="none" fill="#a6da37"><g><path d="M 38 22L 10 10L 10 46L 38 58L 38 22Z"></path></g></g></g><g id="g-root-2.cu_sy_1hd6xa97ixzwl-fill" data-item-order="-60104" transform="translate(391, 219)"><g id="2.cu_sy_1hd6xa97ixzwl-fill" stroke="none" fill="#43dd93"><g><path d="M 10 58L 38 46L 38 10L 10 22L 10 58Z"></path></g></g></g><g id="g-root-2.cu_1_sy_18hjx1d7iy0pa-fill" data-item-order="-60102" transform="translate(335, 231)"><g id="2.cu_1_sy_18hjx1d7iy0pa-fill" stroke="none" fill="#43dd93"><g><path d="M 66 10L 10 10L 10 46L 66 46L 66 10Z"></path></g></g></g><g id="g-root-2.cu_2_sy_v63eo17iy2a7-fill" data-item-order="-60100" transform="translate(307, 219)"><g id="2.cu_2_sy_v63eo17iy2a7-fill" stroke="none" fill="#43dd93"><g><path d="M 38 22L 10 10L 10 46L 38 58L 38 22Z"></path></g></g></g><g id="g-root-1.cu_sy_zlwwsh7iy29s-fill" data-item-order="-60096" transform="translate(391.000244140625, 147)"><g id="1.cu_sy_zlwwsh7iy29s-fill" stroke="none" fill="#1ac3fb"><g><path d="M 10 58L 38 46L 38 10L 10 22L 10 58Z"></path></g></g></g><g id="g-root-1.cu_1_sy_mb2vi97iy0ox-fill" data-item-order="-60094" transform="translate(335.000244140625, 159)"><g id="1.cu_1_sy_mb2vi97iy0ox-fill" stroke="none" fill="#1ac3fb"><g><path d="M 66 10L 10 10L 10 46L 66 46L 66 10Z"></path></g></g></g><g id="g-root-1.cu_2_sy_dffv9d7iy1hm-fill" data-item-order="-60092" transform="translate(307.000244140625, 147)"><g id="1.cu_2_sy_dffv9d7iy1hm-fill" stroke="none" fill="#1ac3fb"><g><path d="M 38 22L 10 10L 10 46L 38 58L 38 22Z"></path></g></g></g><g id="g-root-1.cu_3_sy_8zmd4x7iy29v-fill" data-item-order="-60090" transform="translate(307.0000305175781, 87)"><g id="1.cu_3_sy_8zmd4x7iy29v-fill" stroke="none" fill="#1ac3fb"><g><path d="M 38.000169 50L 94.000169 50L 121.999969 38C 121.999969 38 122.529969 10 66.000169 10C 9.470169 10 10.000169 38 10.000169 38L 38.000169 50Z"></path></g></g></g><g id="g-root-tx_sappuyer_5us5d7iy22y-fill" data-item-order="0" transform="translate(63, 333)"><g id="tx_sappuyer_5us5d7iy22y-fill" stroke="none" fill="#f2ffd7"><g><text style="font: 15px &quot;Roboto&quot;, sans-serif; white-space: pre;" font-size="15px" font-family="'Roboto', sans-serif"><tspan x="51.67" y="31" dominant-baseline="ideographic">S'appuyer sur les </tspan><tspan x="43.58" y="49" dominant-baseline="ideographic">connaissances de </tspan><tspan x="21.72" y="67" dominant-baseline="ideographic">professionnels divers</tspan></text></g></g></g><g id="g-root-2_dffv9d7j98gf-fill" data-item-order="0" transform="translate(231, 285)"></g><g id="g-root-entr_91hse97j7u2p-fill" data-item-order="0" transform="translate(447, 357)"></g><g id="g-root-tx_expertis_1lw4su97iy0az-fill" data-item-order="0" transform="translate(123, 297)"><g id="tx_expertis_1lw4su97iy0az-fill" stroke="none" fill="#f2ffd7"><g><text style="font: bold 20px &quot;Roboto&quot;, sans-serif; white-space: pre;" font-weight="bold" font-size="20px" font-family="'Roboto', sans-serif"><tspan x="19.57" y="34" dominant-baseline="ideographic">Expertise</tspan></text></g></g></g><g id="g-root-tx_utiliser_1hgbapt7iy138-fill" data-item-order="0" transform="translate(507, 261)"><g id="tx_utiliser_1hgbapt7iy138-fill" stroke="none" fill="#dffff0"><g><text style="font: 15px &quot;Roboto&quot;, sans-serif; white-space: pre;" font-size="15px" font-family="'Roboto', sans-serif"><tspan x="12" y="31" dominant-baseline="ideographic">Utiliser des outils avancés </tspan><tspan x="12" y="49" dominant-baseline="ideographic">pour améliorer </tspan><tspan x="12" y="67" dominant-baseline="ideographic">l'apprentissage</tspan></text></g></g></g><g id="g-root-tx_accessib_dhbaip7iy0i1-fill" data-item-order="0" transform="translate(507, 369)"><g id="tx_accessib_dhbaip7iy0i1-fill" stroke="none" fill="#fffbd5"><g><text style="font: bold 20px &quot;Roboto&quot;, sans-serif; white-space: pre;" font-weight="bold" font-size="20px" font-family="'Roboto', sans-serif"><tspan x="12" y="34" dominant-baseline="ideographic">Accessibilité</tspan></text></g></g></g><g id="g-root-tx_sassurer_mcyarl7ixzpc-fill" data-item-order="0" transform="translate(507, 405)"><g id="tx_sassurer_mcyarl7ixzpc-fill" stroke="none" fill="#fffbd5"><g><text style="font: 15px &quot;Roboto&quot;, sans-serif; white-space: pre;" font-size="15px" font-family="'Roboto', sans-serif"><tspan x="12" y="28" dominant-baseline="ideographic">S'assurer que l'apprentissage </tspan><tspan x="12" y="46" dominant-baseline="ideographic">est ouvert à tous</tspan></text></g></g></g><g id="g-root-tx_pertinen_qs5bsx7iy22v-fill" data-item-order="0" transform="translate(111, 441)"><g id="tx_pertinen_qs5bsx7iy22v-fill" stroke="none" fill="#fff0e2"><g><text style="font: bold 20px &quot;Roboto&quot;, sans-serif; white-space: pre;" font-weight="bold" font-size="20px" font-family="'Roboto', sans-serif"><tspan x="18.1" y="34" dominant-baseline="ideographic">Pertinence</tspan></text></g></g></g><g id="g-root-2_8xqxvl7j7w1u-fill" data-item-order="0" transform="translate(231, 429)"></g><g id="g-root-tx_technolo_145h9fl7ixzid-fill" data-item-order="0" transform="translate(507, 225)"><g id="tx_technolo_145h9fl7ixzid-fill" stroke="none" fill="#dffff0"><g><text style="font: bold 20px &quot;Roboto&quot;, sans-serif; white-space: pre;" font-weight="bold" font-size="20px" font-family="'Roboto', sans-serif"><tspan x="12" y="34" dominant-baseline="ideographic">Technologie</tspan></text></g></g></g><g id="g-root-exch_m7c0zl7jantb-fill" data-item-order="0" transform="translate(447, 213)"></g><g id="g-root-tx_encourag_v9u96p7iy0b2-fill" data-item-order="0" transform="translate(51, 189)"><g id="tx_encourag_v9u96p7iy0b2-fill" stroke="none" fill="#e5f8ff"><g><text style="font: 15px &quot;Roboto&quot;, sans-serif; white-space: pre;" font-size="15px" font-family="'Roboto', sans-serif"><tspan x="13.05" y="28" dominant-baseline="ideographic">Encourager de nouvelles </tspan><tspan x="49.65" y="46" dominant-baseline="ideographic">idées et approches</tspan></text></g></g></g><g id="g-root-tx_sassurer_143lu697iy0hy-fill" data-item-order="0" transform="translate(15, 477)"><g id="tx_sassurer_143lu697iy0hy-fill" stroke="none" fill="#fff0e2"><g><text style="font: 15px &quot;Roboto&quot;, sans-serif; white-space: pre;" font-size="15px" font-family="'Roboto', sans-serif"><tspan x="18.08" y="28" dominant-baseline="ideographic">S'assurer que l'apprentissage </tspan><tspan x="38.23" y="46" dominant-baseline="ideographic">est applicable et opportun</tspan></text></g></g></g><g id="g-root-tx_motivere_4ltz57ixzws-fill" data-item-order="0" transform="translate(507, 549)"><g id="tx_motivere_4ltz57ixzws-fill" stroke="none" fill="#ffe9e8"><g><text style="font: 15px &quot;Roboto&quot;, sans-serif; white-space: pre;" font-size="15px" font-family="'Roboto', sans-serif"><tspan x="12" y="28" dominant-baseline="ideographic">Motiver et stimuler </tspan><tspan x="12" y="46" dominant-baseline="ideographic">l'engagement</tspan></text></g></g></g><g id="g-root-elec_dj6ps17ixzig-fill" data-item-order="0" transform="translate(447, 501)"></g><g id="g-root-tx_innovati_hydqtd7iy1vz-fill" data-item-order="0" transform="translate(111, 153)"><g id="tx_innovati_hydqtd7iy1vz-fill" stroke="none" fill="#e5f8ff"><g><text style="font: bold 20px &quot;Roboto&quot;, sans-serif; white-space: pre;" font-weight="bold" font-size="20px" font-family="'Roboto', sans-serif"><tspan x="21.32" y="34" dominant-baseline="ideographic">Innovation</tspan></text></g></g></g><g id="g-root-tx_inspirat_1hefvgh7iy22t-fill" data-item-order="0" transform="translate(507, 513)"><g id="tx_inspirat_1hefvgh7iy22t-fill" stroke="none" fill="#ffe9e8"><g><text style="font: bold 20px &quot;Roboto&quot;, sans-serif; white-space: pre;" font-weight="bold" font-size="20px" font-family="'Roboto', sans-serif"><tspan x="12" y="34" dominant-baseline="ideographic">Inspiration</tspan></text></g></g></g><g id="g-root-tx_lamissio_hvvugx7jewwb-fill" data-item-order="0" transform="translate(255, 39)"><g id="tx_lamissio_hvvugx7jewwb-fill" stroke="none" fill="#f4f4f4"><g><text style="font: 20px &quot;Roboto&quot;, sans-serif; white-space: pre;" font-size="20px" font-family="'Roboto', sans-serif"><tspan x="16.65" y="34" dominant-baseline="ideographic">La Mission de Skylonis</tspan></text></g></g></g><g id="g-root-1_zlwwsh7janex-fill" data-item-order="0" transform="translate(231, 141)"></g><g id="g-root-0.cu_sy_hs4zy97ixzin-stroke" data-item-order="-60142" transform="translate(307, 207)"><g id="0.cu_sy_hs4zy97ixzin-stroke" fill="none" stroke-linecap="round" stroke-linejoin="round" stroke-miterlimit="4" stroke="#2c2c2c" stroke-width="2"><g><path d="M 54.78 406.78L 60.38 409.98L 61.98 405.18L 66 409.18L 70.02 405.18L 71.62 409.98L 77.22 406.78L 122 346L 94 358L 38 358L 10 346L 54.78 406.78ZM 94 298L 38 298L 10 310L 38 322L 94 322L 122 310L 94 298ZM 66 314.8C 54.95 314.8 46 312.65 46 310C 46 307.35 54.95 305.2 66 305.2C 77.05 305.2 86 307.35 86 310C 86 312.65 77.05 314.8 66 314.8ZM 94 226L 38 226L 10 238L 38 250L 94 250L 122 238L 94 226ZM 66 242.8C 54.95 242.8 46 240.65 46 238C 46 235.35 54.95 233.2 66 233.2C 77.05 233.2 86 235.35 86 238C 86 240.65 77.05 242.8 66 242.8ZM 94 154L 38 154L 10 166L 38 178L 94 178L 122 166L 94 154ZM 66 170.8C 54.95 170.8 46 168.65 46 166C 46 163.35 54.95 161.2 66 161.2C 77.05 161.2 86 163.35 86 166C 86 168.65 77.05 170.8 66 170.8ZM 94 82L 38 82L 10 94L 38 106L 94 106L 122 94L 94 82ZM 66 98.8C 54.95 98.8 46 96.65 46 94C 46 91.35 54.95 89.2 66 89.2C 77.05 89.2 86 91.35 86 94C 86 96.65 77.05 98.8 66 98.8ZM 94 10L 38 10L 10 22L 38 34L 94 34L 122 22L 94 10ZM 66 26.8C 54.95 26.8 46 24.65 46 22C 46 19.35 54.95 17.2 66 17.2C 77.05 17.2 86 19.35 86 22C 86 24.65 77.05 26.8 66 26.8Z"></path></g></g></g><g id="g-root-0.cu_1_sy_8whzpd7iy134-stroke" data-item-order="-60140" transform="translate(307.000244140625, 115)"><g id="0.cu_1_sy_8whzpd7iy134-stroke" fill="none" stroke-linecap="round" stroke-linejoin="round" stroke-miterlimit="4" stroke="#2c2c2c" stroke-width="2"><g><path d="M 54.779785 498.780176L 60.379785 501.980176L 61.979785 497.180176L 65.999785 501.180176L 70.019785 497.180176L 71.619785 501.980176L 77.219785 498.780176L 65.999785 514.000176L 54.779785 498.780176ZM 65.999756 406.800195C 77.045456 406.800195 85.999756 404.651195 85.999756 402.000195C 85.999756 399.349195 77.045456 397.200195 65.999756 397.200195C 54.954056 397.200195 45.999756 399.349195 45.999756 402.000195C 45.999756 404.651195 54.954056 406.800195 65.999756 406.800195ZM 65.999756 334.800195C 77.045456 334.800195 85.999756 332.651195 85.999756 330.000195C 85.999756 327.349195 77.045456 325.200195 65.999756 325.200195C 54.954056 325.200195 45.999756 327.349195 45.999756 330.000195C 45.999756 332.651195 54.954056 334.800195 65.999756 334.800195ZM 65.999756 262.800195C 77.045456 262.800195 85.999756 260.651195 85.999756 258.000195C 85.999756 255.349195 77.045456 253.200195 65.999756 253.200195C 54.954056 253.200195 45.999756 255.349195 45.999756 258.000195C 45.999756 260.651195 54.954056 262.800195 65.999756 262.800195ZM 65.999756 190.800195C 77.045456 190.800195 85.999756 188.651195 85.999756 186.000195C 85.999756 183.349195 77.045456 181.200195 65.999756 181.200195C 54.954056 181.200195 45.999756 183.349195 45.999756 186.000195C 45.999756 188.651195 54.954056 190.800195 65.999756 190.800195ZM 65.999756 118.800195C 77.045456 118.800195 85.999756 116.651195 85.999756 114.000195C 85.999756 111.349195 77.045456 109.200195 65.999756 109.200195C 54.954056 109.200195 45.999756 111.349195 45.999756 114.000195C 45.999756 116.651195 54.954056 118.800195 65.999756 118.800195ZM 10 34L 38 46L 94 46L 122 34L 122 42L 94 54L 38 54L 10 42L 10 34ZM 10 26L 38 38L 94 38L 122 26L 122 34L 94 46L 38 46L 10 34L 10 26ZM 10 26L 38 38L 94 38L 122 26L 122 10L 94 22L 38 22L 10 10L 10 26Z"></path></g></g></g><g id="g-root-6.cu_sy_1um5jb57iy2gx-stroke" data-item-order="-60136" transform="translate(391, 507)"><g id="6.cu_sy_1um5jb57iy2gx-stroke" fill="none" stroke-linecap="round" stroke-linejoin="round" stroke-miterlimit="4" stroke="#2c2c2c" stroke-width="2"><g><path d="M 10 58L 38 46L 38 10L 10 22L 10 58Z"></path></g></g></g><g id="g-root-6.cu_1_sy_1lr505d7iy03u-stroke" data-item-order="-60134" transform="translate(335, 519)"><g id="6.cu_1_sy_1lr505d7iy03u-stroke" fill="none" stroke-linecap="round" stroke-linejoin="round" stroke-miterlimit="4" stroke="#2c2c2c" stroke-width="2"><g><path d="M 66 10L 10 10L 10 46L 66 46L 66 10Z"></path></g></g></g><g id="g-root-6.cu_2_sy_1hbbi0x7iy0w3-stroke" data-item-order="-60132" transform="translate(307, 507)"><g id="6.cu_2_sy_1hbbi0x7iy0w3-stroke" fill="none" stroke-linecap="round" stroke-linejoin="round" stroke-miterlimit="4" stroke="#2c2c2c" stroke-width="2"><g><path d="M 38 22L 10 10L 10 46L 38 58L 38 22Z"></path></g></g></g><g id="g-root-5.cu_sy_13zuznl7iy2h0-stroke" data-item-order="-60128" transform="translate(391, 435)"><g id="5.cu_sy_13zuznl7iy2h0-stroke" fill="none" stroke-linecap="round" stroke-linejoin="round" stroke-miterlimit="4" stroke="#2c2c2c" stroke-width="2"><g><path d="M 10 58L 38 46L 38 10L 10 22L 10 58Z"></path></g></g></g><g id="g-root-5.cu_1_sy_v4ught7iy03x-stroke" data-item-order="-60126" transform="translate(335, 447)"><g id="5.cu_1_sy_v4ught7iy03x-stroke" fill="none" stroke-linecap="round" stroke-linejoin="round" stroke-miterlimit="4" stroke="#2c2c2c" stroke-width="2"><g><path d="M 66 10L 10 10L 10 46L 66 46L 66 10Z"></path></g></g></g><g id="g-root-5.cu_2_sy_qp0ydd7iy0w6-stroke" data-item-order="-60124" transform="translate(307, 435)"><g id="5.cu_2_sy_qp0ydd7iy0w6-stroke" fill="none" stroke-linecap="round" stroke-linejoin="round" stroke-miterlimit="4" stroke="#2c2c2c" stroke-width="2"><g><path d="M 38 22L 10 10L 10 46L 38 58L 38 22Z"></path></g></g></g><g id="g-root-4.cu_sy_htdy4h7iy1ov-stroke" data-item-order="-60120" transform="translate(391, 363)"><g id="4.cu_sy_htdy4h7iy1ov-stroke" fill="none" stroke-linecap="round" stroke-linejoin="round" stroke-miterlimit="4" stroke="#2c2c2c" stroke-width="2"><g><path d="M 10 58L 38 46L 38 10L 10 22L 10 58Z"></path></g></g></g><g id="g-root-4.cu_1_sy_ddkg017iy2h4-stroke" data-item-order="-60118" transform="translate(335, 375)"><g id="4.cu_1_sy_ddkg017iy2h4-stroke" fill="none" stroke-linecap="round" stroke-linejoin="round" stroke-miterlimit="4" stroke="#2c2c2c" stroke-width="2"><g><path d="M 66 10L 10 10L 10 46L 66 46L 66 10Z"></path></g></g></g><g id="g-root-4.cu_2_sy_8ydeyp7iy03l-stroke" data-item-order="-60116" transform="translate(307, 363)"><g id="4.cu_2_sy_8ydeyp7iy03l-stroke" fill="none" stroke-linecap="round" stroke-linejoin="round" stroke-miterlimit="4" stroke="#2c2c2c" stroke-width="2"><g><path d="M 38 22L 10 10L 10 46L 38 58L 38 22Z"></path></g></g></g><g id="g-root-3.cu_sy_2qept7iy0wa-stroke" data-item-order="-60112" transform="translate(391, 291)"><g id="3.cu_sy_2qept7iy0wa-stroke" fill="none" stroke-linecap="round" stroke-linejoin="round" stroke-miterlimit="4" stroke="#2c2c2c" stroke-width="2"><g><path d="M 10 58L 38 46L 38 10L 10 22L 10 58Z"></path></g></g></g><g id="g-root-3.cu_1_sy_1uo0ykh7iy1hf-stroke" data-item-order="-60110" transform="translate(335, 303)"><g id="3.cu_1_sy_1uo0ykh7iy1hf-stroke" fill="none" stroke-linecap="round" stroke-linejoin="round" stroke-miterlimit="4" stroke="#2c2c2c" stroke-width="2"><g><path d="M 66 10L 10 10L 10 46L 66 46L 66 10Z"></path></g></g></g><g id="g-root-3.cu_2_sy_1lsdybl7iy2a4-stroke" data-item-order="-60108" transform="translate(307, 291)"><g id="3.cu_2_sy_1lsdybl7iy2a4-stroke" fill="none" stroke-linecap="round" stroke-linejoin="round" stroke-miterlimit="4" stroke="#2c2c2c" stroke-width="2"><g><path d="M 38 22L 10 10L 10 46L 38 58L 38 22Z"></path></g></g></g><g id="g-root-2.cu_sy_1hd6xa97ixzwl-stroke" data-item-order="-60104" transform="translate(391, 219)"><g id="2.cu_sy_1hd6xa97ixzwl-stroke" fill="none" stroke-linecap="round" stroke-linejoin="round" stroke-miterlimit="4" stroke="#2c2c2c" stroke-width="2"><g><path d="M 10 58L 38 46L 38 10L 10 22L 10 58Z"></path></g></g></g><g id="g-root-2.cu_1_sy_18hjx1d7iy0pa-stroke" data-item-order="-60102" transform="translate(335, 231)"><g id="2.cu_1_sy_18hjx1d7iy0pa-stroke" fill="none" stroke-linecap="round" stroke-linejoin="round" stroke-miterlimit="4" stroke="#2c2c2c" stroke-width="2"><g><path d="M 66 10L 10 10L 10 46L 66 46L 66 10Z"></path></g></g></g><g id="g-root-2.cu_2_sy_v63eo17iy2a7-stroke" data-item-order="-60100" transform="translate(307, 219)"><g id="2.cu_2_sy_v63eo17iy2a7-stroke" fill="none" stroke-linecap="round" stroke-linejoin="round" stroke-miterlimit="4" stroke="#2c2c2c" stroke-width="2"><g><path d="M 38 22L 10 10L 10 46L 38 58L 38 22Z"></path></g></g></g><g id="g-root-1.cu_sy_zlwwsh7iy29s-stroke" data-item-order="-60096" transform="translate(391.000244140625, 147)"><g id="1.cu_sy_zlwwsh7iy29s-stroke" fill="none" stroke-linecap="round" stroke-linejoin="round" stroke-miterlimit="4" stroke="#2c2c2c" stroke-width="2"><g><path d="M 10 58L 38 46L 38 10L 10 22L 10 58Z"></path></g></g></g><g id="g-root-1.cu_1_sy_mb2vi97iy0ox-stroke" data-item-order="-60094" transform="translate(335.000244140625, 159)"><g id="1.cu_1_sy_mb2vi97iy0ox-stroke" fill="none" stroke-linecap="round" stroke-linejoin="round" stroke-miterlimit="4" stroke="#2c2c2c" stroke-width="2"><g><path d="M 66 10L 10 10L 10 46L 66 46L 66 10Z"></path></g></g></g><g id="g-root-1.cu_2_sy_dffv9d7iy1hm-stroke" data-item-order="-60092" transform="translate(307.000244140625, 147)"><g id="1.cu_2_sy_dffv9d7iy1hm-stroke" fill="none" stroke-linecap="round" stroke-linejoin="round" stroke-miterlimit="4" stroke="#2c2c2c" stroke-width="2"><g><path d="M 38 22L 10 10L 10 46L 38 58L 38 22Z"></path></g></g></g><g id="g-root-1.cu_3_sy_8zmd4x7iy29v-stroke" data-item-order="-60090" transform="translate(307.0000305175781, 87)"><g id="1.cu_3_sy_8zmd4x7iy29v-stroke" fill="none" stroke-linecap="round" stroke-linejoin="round" stroke-miterlimit="4" stroke="#2c2c2c" stroke-width="2"><g><path d="M 38.000169 50L 94.000169 50L 122.000169 38C 122.000169 38 122.530169 10 66.000169 10C 9.470169 10 10.000169 38 10.000169 38L 38.000169 50Z"></path></g></g></g><g id="g-root-tx_sappuyer_5us5d7iy22y-stroke" data-item-order="0" transform="translate(63, 333)"></g><g id="g-root-2_dffv9d7j98gf-stroke" data-item-order="0" transform="translate(231, 285)"><g id="2_dffv9d7j98gf-stroke" fill="none" stroke-linecap="round" stroke-linejoin="round" stroke-miterlimit="4" stroke="#a6da37" stroke-width="2"><g><path d="M 11 44.236C 11 47.199562 13.40244 49.602001 16.366001 49.602001C 19.329559 49.602001 21.732 47.199562 21.732 44.236C 21.732 41.272442 19.329559 38.870003 16.366001 38.870003C 13.40244 38.870003 11 41.272442 11 44.236M 24.83 56.722C 23.733578 54.15427 21.530436 52.223373 18.841097 51.47316C 16.151758 50.722946 13.267247 51.234596 11 52.863998M 46.268002 44.236C 46.268002 47.199562 48.670441 49.602001 51.634003 49.602001C 54.597561 49.602001 57.000004 47.199562 57.000004 44.236C 57.000004 41.272442 54.597561 38.870003 51.634003 38.870003C 48.670441 38.870003 46.268002 41.272442 46.268002 44.236M 43.169998 56.722C 44.266418 54.15427 46.469563 52.223373 49.158901 51.47316C 51.84824 50.722946 54.73275 51.234596 56.999996 52.863998M 27.1 42.702C 27.099024 46.513454 30.188545 49.603767 34 49.603767C 37.811455 49.603767 40.900978 46.513454 40.900002 42.702C 40.900978 38.890545 37.811455 35.800232 34 35.800232C 30.188545 35.800232 27.099024 38.890545 27.1 42.702M 43.169998 56.722C 40.820126 54.140408 37.490913 52.668919 34 52.668919C 30.509081 52.668919 27.179871 54.140408 24.829998 56.721996M 30.934 25.077999C 30.934 26.771305 32.306694 28.144001 34 28.144001C 35.693306 28.144001 37.066002 26.771305 37.066002 25.077999C 37.066002 23.384695 35.693306 22.012001 34 22.012001C 32.306694 22.012001 30.934 23.384695 30.934 25.077999M 28.091999 32.577999L 25.08 33.276001C 23.909945 33.537689 22.705814 33.007095 22.109383 31.967009C 21.512949 30.926922 21.663177 29.619677 22.48 28.742001L 24.582001 26.469999C 25.309984 25.684002 25.309984 24.469999 24.582001 23.684L 22.476 21.414C 21.660423 20.53574 21.510864 19.229115 22.106888 18.189278C 22.702915 17.149443 23.90597 16.618126 25.076 16.878L 28.087999 17.576C 29.13192 17.814625 30.181868 17.202154 30.488001 16.176001L 31.4 13.214C 31.745472 12.063965 32.804195 11.276545 34.004997 11.276545C 35.205803 11.276545 36.264526 12.063965 36.610001 13.214L 37.514 16.184C 37.820133 17.210155 38.870079 17.822624 39.914001 17.584L 42.914001 16.886C 44.084026 16.626125 45.287083 17.157444 45.88311 18.197277C 46.479134 19.237114 46.329575 20.543739 45.513996 21.421999L 43.416 23.684C 42.689945 24.470753 42.689945 25.683243 43.415997 26.469999L 45.523998 28.742001C 46.340824 29.619677 46.491055 30.926922 45.894619 31.967009C 45.298187 33.007095 44.094059 33.537689 42.924 33.276001L 39.924 32.577999M 28.6 38.400002C 31.986273 41.374069 36.396431 42.91465 40.898003 42.696003M 12.152 40.924C 14.800483 43.220455 18.232716 44.406799 21.734001 44.236M 47.417999 40.924C 50.066483 43.220455 53.498718 44.406799 57.000004 44.236"></path></g></g></g><g id="g-root-entr_91hse97j7u2p-stroke" data-item-order="0" transform="translate(447, 357)"><g id="entr_91hse97j7u2p-stroke" fill="none" stroke-linecap="round" stroke-linejoin="round" stroke-miterlimit="4" stroke="#ffe711" stroke-width="2"><g><path d="M 29.506001 53.799999C 24.813435 57.567192 17.964706 56.864452 14.13496 52.222801C 10.305213 47.581146 10.916094 40.723618 15.506001 36.832001M 19.006001 21.138C 19.006001 23.623281 21.020718 25.638 23.506001 25.638C 25.991282 25.638 28.006001 23.623281 28.006001 21.138C 28.006001 18.652718 25.991282 16.638 23.506001 16.638C 21.020718 16.638 19.006001 18.652718 19.006001 21.138M 35.507999 52.638C 34.59568 52.640461 33.732292 52.225712 33.164001 51.512001L 30.062 47.638L 25.506001 47.638C 22.744576 47.638 20.506001 45.399426 20.506001 42.638L 20.506001 32.638C 20.506224 31.728312 20.919201 30.867861 21.628788 30.298635C 22.338379 29.72941 23.267921 29.512901 24.156 29.710001L 33.155998 31.709999C 34.773327 32.069267 35.79332 33.671463 35.434387 35.288864C 35.075455 36.906265 33.473476 37.92659 31.855999 37.568001L 26.506001 36.368L 26.506001 41.627998L 30.544001 41.627998C 32.06509 41.62392 33.504295 42.316624 34.449997 43.507999L 37.849998 47.754002C 38.570061 48.654144 38.710693 49.887253 38.211792 50.926411C 37.712894 51.965569 36.662712 52.626972 35.510002 52.628002ZM 43.897999 15.76L 43.897999 13.76C 43.897999 12.655431 44.79343 11.76 45.897999 11.76L 54.400002 11.76C 55.50457 11.76 56.400002 12.655431 56.400002 13.76L 56.400002 37.760002C 56.400002 38.864571 55.50457 39.760002 54.400002 39.760002L 45.900002 39.760002C 44.795429 39.760002 43.900002 38.864571 43.900002 37.760002L 43.900002 35.760002M 37.898003 25.76L 51.897999 25.76M 46.902 20.764L 51.897999 25.76L 46.902 30.756001"></path></g></g></g><g id="g-root-tx_expertis_1lw4su97iy0az-stroke" data-item-order="0" transform="translate(123, 297)"></g><g id="g-root-tx_utiliser_1hgbapt7iy138-stroke" data-item-order="0" transform="translate(507, 261)"></g><g id="g-root-tx_accessib_dhbaip7iy0i1-stroke" data-item-order="0" transform="translate(507, 369)"></g><g id="g-root-tx_sassurer_mcyarl7ixzpc-stroke" data-item-order="0" transform="translate(507, 405)"></g><g id="g-root-tx_pertinen_qs5bsx7iy22v-stroke" data-item-order="0" transform="translate(111, 441)"></g><g id="g-root-2_8xqxvl7j7w1u-stroke" data-item-order="0" transform="translate(231, 429)"><g id="2_8xqxvl7j7w1u-stroke" fill="none" stroke-linecap="round" stroke-linejoin="round" stroke-miterlimit="4" stroke="#f79438" stroke-width="2"><g><path d="M 36.48 36.98C 36.827034 37.948929 37.002987 38.970806 37 40C 37.007744 44.304981 33.972198 48.015411 29.751007 48.860653C 25.529816 49.705898 21.299652 47.450336 19.649218 43.474289C 17.998783 39.498238 19.388142 34.910049 22.96706 32.517509C 26.545979 30.124971 31.316814 30.595018 34.360001 33.639999M 42.68 31.42C 47.276806 39.143959 45.083679 49.110222 37.669128 54.191025C 30.254576 59.271824 20.168573 57.719795 14.624529 50.644932C 9.080484 43.570068 9.985079 33.405525 16.691357 27.420881C 23.397633 21.436237 33.599201 21.689701 40 28M 11 57L 15.98 52.02M 40.02 52.02L 45 57M 42.860001 25.139999L 42.139999 17.360001L 48.5 11L 50.639999 17.360001L 57 19.5L 50.639999 25.860001L 42.860001 25.139999ZM 48 20L 28 40"></path></g></g></g><g id="g-root-tx_technolo_145h9fl7ixzid-stroke" data-item-order="0" transform="translate(507, 225)"></g><g id="g-root-exch_m7c0zl7jantb-stroke" data-item-order="0" transform="translate(447, 213)"><g id="exch_m7c0zl7jantb-stroke" fill="none" stroke-linecap="round" stroke-linejoin="round" stroke-miterlimit="4" stroke="#43dd93" stroke-width="2"><g><path d="M 23 56L 27 52L 23 48M 12 27.958C 11.995503 29.623558 13.334539 30.98134 15 31L 33 31C 34.665001 30.980259 36.003407 29.623114 36 27.958L 36 16C 36 14.343145 34.656853 13 33 13L 15 13C 13.343145 13 12 14.343145 12 16ZM 12 25L 36 25M 19 35L 29 35M 24 31L 24 35M 38 33C 38 31.89543 38.895432 31 40 31L 52 31C 53.104568 31 54 31.89543 54 33L 54 55C 54 56.104568 53.104568 57 52 57L 40 57C 38.895432 57 38 56.104568 38 55ZM 15 42C 15 47.522846 19.477154 52 25 52L 27 52M 47 12L 43 16L 47 20M 55 26C 55 20.477154 50.52285 16 45 16L 43 16M 38 49L 54 49M 46 52.5C 45.723858 52.5 45.5 52.723858 45.5 53C 45.5 53.276142 45.723858 53.5 46 53.5C 46.276142 53.5 46.5 53.276142 46.5 53C 46.5 52.723858 46.276142 52.5 46 52.5L 46 52.5"></path></g></g></g><g id="g-root-tx_encourag_v9u96p7iy0b2-stroke" data-item-order="0" transform="translate(51, 189)"></g><g id="g-root-tx_sassurer_143lu697iy0hy-stroke" data-item-order="0" transform="translate(15, 477)"></g><g id="g-root-tx_motivere_4ltz57ixzws-stroke" data-item-order="0" transform="translate(507, 549)"></g><g id="g-root-elec_dj6ps17ixzig-stroke" data-item-order="0" transform="translate(447, 501)"><g id="elec_dj6ps17ixzig-stroke" fill="none" stroke-linecap="round" stroke-linejoin="round" stroke-miterlimit="4" stroke="#fb6762" stroke-width="2"><g><path d="M 22 32C 22 34.761425 24.238577 37 27 37C 29.761423 37 32 34.761425 32 32C 32 29.238577 29.761423 27 27 27C 24.238577 27 22 29.238577 22 32ZM 34.938 57L 34.138 46.296001L 36.375999 45.936001C 38.764214 45.551552 40.897133 44.22192 42.293819 42.246918C 43.690506 40.271912 44.233368 37.817825 43.799999 35.438L 42.894001 30.462C 42.570923 28.859541 41.024368 27.810717 39.416077 28.10338C 37.807785 28.396046 36.729855 29.922453 36.992001 31.536001L 37.896 36.512001C 38.04007 37.304974 37.859016 38.122566 37.393631 38.780579C 36.928246 39.438591 36.217674 39.881672 35.422001 40.010002L 25.200001 41.66C 22.212044 41.959091 19.418831 43.280109 17.292 45.399998L 13.878 48.816002C 12.706968 49.98801 12.707588 51.887367 13.879386 53.058613C 15.051184 54.229858 16.950542 54.229584 18.122 53.057999L 21.534 49.646C 22.405813 48.779369 23.491093 48.158421 24.68 47.846001L 23.938 57M 11 11L 42 11C 42.552284 11 43 11.447716 43 12L 43 16C 43 16.552284 43.447716 17 44 17L 57 17M 36 15L 32.052002 15.8C 31.861809 15.838423 31.711021 15.983412 31.665173 16.171951C 31.619322 16.360489 31.686693 16.558531 31.837999 16.68L 36 20L 34.382 24.854C 34.321098 25.045145 34.380341 25.254183 34.532471 25.384954C 34.684601 25.515726 34.900166 25.54291 35.080002 25.454L 42 22L 45.577999 24.681999C 45.687653 24.765087 45.82679 24.79911 45.96241 24.776003C 46.09803 24.752895 46.218052 24.674711 46.293999 24.559999L 48 22"></path></g></g></g><g id="g-root-tx_innovati_hydqtd7iy1vz-stroke" data-item-order="0" transform="translate(111, 153)"></g><g id="g-root-tx_inspirat_1hefvgh7iy22t-stroke" data-item-order="0" transform="translate(507, 513)"></g><g id="g-root-tx_lamissio_hvvugx7jewwb-stroke" data-item-order="0" transform="translate(255, 39)"></g><g id="g-root-1_zlwwsh7janex-stroke" data-item-order="0" transform="translate(231, 141)"><g id="1_zlwwsh7janex-stroke" fill="none" stroke-linecap="round" stroke-linejoin="round" stroke-miterlimit="4" stroke="#1ac3fb" stroke-width="2"><g><path d="M 24.39996 35.900002C 24.39996 30.700001 28.799959 26.299999 34 26.299999C 39.200001 26.299999 43.599998 30.700001 43.599998 35.900002C 43.599998 38.5 42.599998 40.900002 40.799999 42.700001C 39.200001 44.299999 38.200001 46.5 38.200001 48.900002L 38.200001 50.900002C 38.200001 52.900002 36.599998 54.5 34.599998 54.5L 33.400002 54.5C 31.4 54.5 29.799959 52.900002 29.799959 50.900002L 29.799959 48.900002C 29.799959 46.5 28.799959 44.299999 27.199961 42.700001C 25.39996 40.900002 24.39996 38.5 24.39996 35.900002ZM 34 54.5L 34 56.5M 29.632759 47.299999L 38.343597 47.299999M 52.5 44.799999C 54.709 44.799999 56.5 43.009201 56.5 40.799999C 56.5 38.591 54.709 36.799999 52.5 36.799999C 50.290798 36.799999 48.5 38.591 48.5 40.799999C 48.5 43.009201 50.290798 44.799999 52.5 44.799999ZM 14.90008 30.5C 14.90008 20.1 23.50008 11.5 33.900002 11.5C 44.299999 11.5 52.900002 20.1 52.900002 30.5M 10 10M 46.299999 22.300201L 51.900002 16.700199M 14.900061 41.4002C 15.23144 41.4002 15.50006 41.131599 15.50006 40.800201C 15.50006 40.4688 15.23144 40.200199 14.900061 40.200199M 14.900101 41.4002C 14.56874 41.4002 14.3001 41.131599 14.3001 40.800201C 14.3001 40.4688 14.56874 40.200199 14.900101 40.200199"></path></g></g></g></g></g></svg>